<?xml version="1.0" encoding="UTF-8" standalone="no"?>
<!DOCTYPE svg PUBLIC "-//W3C//DTD SVG 1.1//EN"
 "http://www.w3.org/Graphics/SVG/1.1/DTD/svg11.dtd">
<!-- Generated by graphviz version 2.40.1 (20161225.0304)
 -->
<!-- Title: G Pages: 1 -->
<svg width="760pt" height="218pt"
 viewBox="0.00 0.00 760.49 218.00" xmlns="http://www.w3.org/2000/svg" xmlns:xlink="http://www.w3.org/1999/xlink">
<g id="graph0" class="graph" transform="scale(1 1) rotate(0) translate(4 214)">
<title>G</title>
<polygon fill="#ffffff" stroke="transparent" points="-4,4 -4,-214 756.4902,-214 756.4902,4 -4,4"/>
<!-- u0 -->
<g id="node1" class="node">
<title>u0</title>
<ellipse fill="none" stroke="#000000" cx="169.6955" cy="-192" rx="50.8918" ry="18"/>
<text text-anchor="middle" x="169.6955" y="-188.3" font-family="Times,serif" font-size="14.00" fill="#000000">&quot;node 1&quot;</text>
</g>
<!-- u1 -->
<g id="node2" class="node">
<title>u1</title>
<ellipse fill="none" stroke="#000000" cx="50.6955" cy="-105" rx="50.8918" ry="18"/>
<text text-anchor="middle" x="50.6955" y="-101.3" font-family="Times,serif" font-size="14.00" fill="#000000">&quot;node 2&quot;</text>
</g>
<!-- u0&#45;&gt;u1 -->
<g id="edge1" class="edge">
<title>u0&#45;&gt;u1</title>
<path fill="none" stroke="#000000" d="M147.3125,-175.636C128.6135,-161.9653 101.7713,-142.3411 81.1227,-127.2451"/>
<polygon fill="#000000" stroke="#000000" points="83.1165,-124.3671 72.9781,-121.2907 78.9851,-130.018 83.1165,-124.3671"/>
<text text-anchor="middle" x="137.1955" y="-144.8" font-family="Times,serif" font-size="14.00" fill="#000000">Child</text>
</g>
<!-- u2 -->
<g id="node3" class="node">
<title>u2</title>
<ellipse fill="none" stroke="#000000" cx="169.6955" cy="-105" rx="50.8918" ry="18"/>
<text text-anchor="middle" x="169.6955" y="-101.3" font-family="Times,serif" font-size="14.00" fill="#000000">&quot;node 3&quot;</text>
</g>
<!-- u0&#45;&gt;u2 -->
<g id="edge2" class="edge">
<title>u0&#45;&gt;u2</title>
<path fill="none" stroke="#000000" d="M169.6955,-173.9735C169.6955,-162.1918 169.6955,-146.5607 169.6955,-133.1581"/>
<polygon fill="#000000" stroke="#000000" points="173.1956,-133.0033 169.6955,-123.0034 166.1956,-133.0034 173.1956,-133.0033"/>
<text text-anchor="middle" x="189.1955" y="-144.8" font-family="Times,serif" font-size="14.00" fill="#000000">Child</text>
</g>
<!-- u4 -->
<g id="node5" class="node">
<title>u4</title>
<ellipse fill="none" stroke="#000000" cx="288.6955" cy="-105" rx="50.8918" ry="18"/>
<text text-anchor="middle" x="288.6955" y="-101.3" font-family="Times,serif" font-size="14.00" fill="#000000">&quot;node 5&quot;</text>
</g>
<!-- u0&#45;&gt;u4 -->
<g id="edge3" class="edge">
<title>u0&#45;&gt;u4</title>
<path fill="none" stroke="#000000" d="M192.0785,-175.636C210.7775,-161.9653 237.6197,-142.3411 258.2683,-127.2451"/>
<polygon fill="#000000" stroke="#000000" points="260.4059,-130.018 266.4129,-121.2907 256.2745,-124.3671 260.4059,-130.018"/>
<text text-anchor="middle" x="256.1955" y="-144.8" font-family="Times,serif" font-size="14.00" fill="#000000">Child</text>
</g>
<!-- u3 -->
<g id="node4" class="node">
<title>u3</title>
<ellipse fill="none" stroke="#000000" cx="169.6955" cy="-18" rx="50.8918" ry="18"/>
<text text-anchor="middle" x="169.6955" y="-14.3" font-family="Times,serif" font-size="14.00" fill="#000000">&quot;node 4&quot;</text>
</g>
<!-- u2&#45;&gt;u3 -->
<g id="edge4" class="edge">
<title>u2&#45;&gt;u3</title>
<path fill="none" stroke="#000000" d="M169.6955,-86.9735C169.6955,-75.1918 169.6955,-59.5607 169.6955,-46.1581"/>
<polygon fill="#000000" stroke="#000000" points="173.1956,-46.0033 169.6955,-36.0034 166.1956,-46.0034 173.1956,-46.0033"/>
<text text-anchor="middle" x="189.1955" y="-57.8" font-family="Times,serif" font-size="14.00" fill="#000000">Child</text>
</g>
<!-- u5 -->
<g id="node6" class="node">
<title>u5</title>
<ellipse fill="none" stroke="#000000" cx="554.6955" cy="-192" rx="59.5901" ry="18"/>
<text text-anchor="middle" x="554.6955" y="-188.3" font-family="Times,serif" font-size="14.00" fill="#000000">&quot;node 2:1&quot;</text>
</g>
<!-- u6 -->
<g id="node7" class="node">
<title>u6</title>
<ellipse fill="none" stroke="#000000" cx="416.6955" cy="-105" rx="59.5901" ry="18"/>
<text text-anchor="middle" x="416.6955" y="-101.3" font-family="Times,serif" font-size="14.00" fill="#000000">&quot;node 2:2&quot;</text>
</g>
<!-- u5&#45;&gt;u6 -->
<g id="edge5" class="edge">
<title>u5&#45;&gt;u6</title>
<path fill="none" stroke="#000000" d="M528.7388,-175.636C506.7651,-161.783 475.0945,-141.8168 451.0269,-126.6437"/>
<polygon fill="#000000" stroke="#000000" points="452.8617,-123.663 442.5359,-121.2907 449.1286,-129.5845 452.8617,-123.663"/>
<text text-anchor="middle" x="514.1955" y="-144.8" font-family="Times,serif" font-size="14.00" fill="#000000">Child</text>
</g>
<!-- u8 -->
<g id="node9" class="node">
<title>u8</title>
<ellipse fill="none" stroke="#000000" cx="554.6955" cy="-105" rx="59.5901" ry="18"/>
<text text-anchor="middle" x="554.6955" y="-101.3" font-family="Times,serif" font-size="14.00" fill="#000000">&quot;node 2:3&quot;</text>
</g>
<!-- u5&#45;&gt;u8 -->
<g id="edge6" class="edge">
<title>u5&#45;&gt;u8</title>
<path fill="none" stroke="#000000" d="M554.6955,-173.9735C554.6955,-162.1918 554.6955,-146.5607 554.6955,-133.1581"/>
<polygon fill="#000000" stroke="#000000" points="558.1956,-133.0033 554.6955,-123.0034 551.1956,-133.0034 558.1956,-133.0033"/>
<text text-anchor="middle" x="574.1955" y="-144.8" font-family="Times,serif" font-size="14.00" fill="#000000">Child</text>
</g>
<!-- u9 -->
<g id="node10" class="node">
<title>u9</title>
<ellipse fill="none" stroke="#000000" cx="692.6955" cy="-105" rx="59.5901" ry="18"/>
<text text-anchor="middle" x="692.6955" y="-101.3" font-family="Times,serif" font-size="14.00" fill="#000000">&quot;node 2:4&quot;</text>
</g>
<!-- u5&#45;&gt;u9 -->
<g id="edge7" class="edge">
<title>u5&#45;&gt;u9</title>
<path fill="none" stroke="#000000" d="M580.6522,-175.636C602.6259,-161.783 634.2965,-141.8168 658.3641,-126.6437"/>
<polygon fill="#000000" stroke="#000000" points="660.2624,-129.5845 666.8551,-121.2907 656.5293,-123.663 660.2624,-129.5845"/>
<text text-anchor="middle" x="651.1955" y="-144.8" font-family="Times,serif" font-size="14.00" fill="#000000">Child</text>
</g>
<!-- u7 -->
<g id="node8" class="node">
<title>u7</title>
<ellipse fill="none" stroke="#000000" cx="416.6955" cy="-18" rx="59.5901" ry="18"/>
<text text-anchor="middle" x="416.6955" y="-14.3" font-family="Times,serif" font-size="14.00" fill="#000000">&quot;node 2:5&quot;</text>
</g>
<!-- u6&#45;&gt;u7 -->
<g id="edge8" class="edge">
<title>u6&#45;&gt;u7</title>
<path fill="none" stroke="#000000" d="M416.6955,-86.9735C416.6955,-75.1918 416.6955,-59.5607 416.6955,-46.1581"/>
<polygon fill="#000000" stroke="#000000" points="420.1956,-46.0033 416.6955,-36.0034 413.1956,-46.0034 420.1956,-46.0033"/>
<text text-anchor="middle" x="436.1955" y="-57.8" font-family="Times,serif" font-size="14.00" fill="#000000">Child</text>
</g>
</g>
</svg>
